# xmcd
#
# Track frame offsets:
#	150
#	9140
#	20715
#	33227
#	46142
#	56665
#	67912
#	78722
#	89137
#	103025
#	114425
#	125312
#	134712
#	143782
#	156532
#	169642
#	182300
#	194972
#	206890
#	220715
#	231337
#	241357
#	251490
#	262827
#	272322
#	282762
#	295245
#	307367
#	319435
#	332732
#	343760
#
# Disc length: 4711 seconds
#
# Revision: 1
# Processed by: cddbd v1.5.2PL0 Copyright (c) Steve Scherf et al.
# Submitted via: audiograbber 1.83.01
#
DISCID=da12651f
DTITLE=Various Artist - The 'D' Singles Volume 1 - Disc3
DYEAR=1900
DGENRE=Country
TTITLE0=Byron Johnson - True Affection
TTITLE1=Byron Johnson - You Were Only Fooling
TTITLE2=Johnny Mac - I Need Some One
TTITLE3=Johnny Mac and Billy Fred - That's All I Can Do
TTITLE4=Patsy Timmons - Step Aside Old Heart
TTITLE5=Patsy Timmons - I Understand Him
TTITLE6=Doug Stanford - Won't You Tell Me
TTITLE7=Doug Stanford - Sady
TTITLE8=Sonny Hall - Men Do Cry
TTITLE9=Sonny Hall - The Day You Walked Away
TTITLE10=Dave Edge - I Kept It A Secret
TTITLE11=Dave Edge - I Didn't Think It Of You
TTITLE12=Eddie Noack - I Don't Live There Anymore
TTITLE13=Eddie Noack - Walk 'Em Off
TTITLE14=Gaston Ponce Castellanos - Que-Chula-Estas
TTITLE15=Gaston Ponce Castellanos - Si-Yo-Te-Quiero
TTITLE16=Rick Johnson - Reprieve Of Tom Dooley
TTITLE17=Rick Johnson - Barbara Allen
TTITLE18=Ward Allen - Maple Sugar
TTITLE19=Ward Allen - Back Up And Push
TTITLE20=Jerry Lynn - Bugger Burns
TTITLE21=Jerry Lynn - Queen Of The Moon
TTITLE22=Merle Kilgore - It'll Be My First Time
TTITLE23=Merle Kilgore - I Take A Trip To The Moon
TTITLE24=Harry Choates - Opelousas Waltz
TTITLE25=Harry Choates - Poor Hobo
TTITLE26=Harry Choates - Honky Tonk Boogie
TTITLE27=Harry Choates - Port Arthur Waltz
TTITLE28=Doug Bragg - I'm All Alone
TTITLE29=Doug Bragg - Calling Me Back
TTITLE30=Doug Bragg - Whirlwind
EXTD=
EXTT0=
EXTT1=
EXTT2=
EXTT3=
EXTT4=
EXTT5=
EXTT6=
EXTT7=
EXTT8=
EXTT9=
EXTT10=
EXTT11=
EXTT12=
EXTT13=
EXTT14=
EXTT15=
EXTT16=
EXTT17=
EXTT18=
EXTT19=
EXTT20=
EXTT21=
EXTT22=
EXTT23=
EXTT24=
EXTT25=
EXTT26=
EXTT27=
EXTT28=
EXTT29=
EXTT30=
PLAYORDER=
